<?xml version="1.0" encoding="UTF-8" standalone="no"?>
<!-- Created with Inkscape (http://www.inkscape.org/) -->
<svg
   xmlns:dc="http://purl.org/dc/elements/1.1/"
   xmlns:cc="http://web.resource.org/cc/"
   xmlns:rdf="http://www.w3.org/1999/02/22-rdf-syntax-ns#"
   xmlns:svg="http://www.w3.org/2000/svg"
   xmlns="http://www.w3.org/2000/svg"
   xmlns:sodipodi="http://sodipodi.sourceforge.net/DTD/sodipodi-0.dtd"
   xmlns:inkscape="http://www.inkscape.org/namespaces/inkscape"
   id="svg4718"
   sodipodi:version="0.32"
   inkscape:version="0.44"
   width="591"
   height="384"
   version="1.0"
   sodipodi:docbase="C:\Users\omar\Desktop\SSP_Proyecto\SSP_IHM"
   sodipodi:docname="alpha_omega.svg">
  <metadata
     id="metadata4723">
    <rdf:RDF>
      <cc:Work
         rdf:about="">
        <dc:format>image/svg+xml</dc:format>
        <dc:type
           rdf:resource="http://purl.org/dc/dcmitype/StillImage" />
      </cc:Work>
    </rdf:RDF>
  </metadata>
  <defs
     id="defs4721" />
  <sodipodi:namedview
     inkscape:window-height="708"
     inkscape:window-width="1024"
     inkscape:pageshadow="2"
     inkscape:pageopacity="0.0"
     guidetolerance="10.0"
     gridtolerance="10.0"
     objecttolerance="10.0"
     borderopacity="1.0"
     bordercolor="#666666"
     pagecolor="#ffffff"
     id="base"
     inkscape:zoom="0.98177083"
     inkscape:cx="321.35241"
     inkscape:cy="207.03744"
     inkscape:window-x="-4"
     inkscape:window-y="-4"
     inkscape:current-layer="svg4718" />
  <path
     style="fill:black;fill-opacity:1;fill-rule:evenodd;stroke:black;stroke-width:0.40000001;stroke-linecap:butt;stroke-linejoin:miter;stroke-miterlimit:4;stroke-dasharray:none;stroke-opacity:1"
     d="M 184.97486,-74.142759 C 184.97486,-74.142759 132.64595,-94.514109 134.1738,-143.40536 C 135.70165,-192.2966 181.53719,-212.9226 209.29316,-211.39475 C 237.04913,-209.8669 274.69389,-191.15588 278.30112,-146.7157 C 280.11825,-124.149 269.04945,-107.14978 257.16624,-93.631519 C 245.30503,-80.138299 228.26399,-74.397399 228.26399,-74.397399 L 228.31484,-72.449619 L 260.00523,-72.989799 C 260.00523,-72.989799 266.48735,-73.169859 270.08853,-76.050799 C 273.68971,-78.931739 274.77007,-80.552279 276.21054,-82.893039 C 277.65101,-85.233809 278.73137,-88.834989 278.73137,-88.834989 L 282.51261,-88.834989 L 274.40995,-64.527019 L 214.99047,-64.346959 L 215.17053,-72.809739 C 215.17053,-72.809739 261.4457,-88.114749 261.08558,-136.73069 C 260.72546,-185.34663 236.95767,-204.793 205.98752,-205.51324 C 175.01737,-206.23347 151.24958,-179.94486 150.88946,-143.93305 C 150.52934,-107.92125 169.25548,-88.474869 181.13938,-81.632629 C 193.02327,-74.790389 198.06492,-72.269559 198.06492,-72.269559 L 198.24498,-64.346959 L 139.00557,-64.527019 L 130.72285,-89.015049 L 134.50409,-89.015049 L 136.84486,-83.253159 C 136.84486,-83.253159 138.82551,-79.111799 142.42669,-76.771039 C 146.02787,-74.430269 151.42964,-73.349909 151.42964,-73.349909 L 184.92062,-72.539649 L 184.97486,-74.142759 z "
     id="path5614"
     sodipodi:nodetypes="csssscccsscccccssssccccccsccc" />
  <path
     style="fill:black;fill-opacity:1;fill-rule:evenodd;stroke:black;stroke-width:0.40000001;stroke-linecap:butt;stroke-linejoin:miter;stroke-miterlimit:4;stroke-dasharray:none;stroke-opacity:1"
     d="M 386.6205,-201.0006 L 384.2455,-198.65685 L 336.6205,-66.969349 L 337.058,-64.875599 L 352.9955,-64.875599 L 354.3705,-66.688099 L 366.2455,-100.0006 L 424.02675,-100.34435 L 435.933,-66.156849 L 437.71425,-64.156849 L 453.40175,-64.344349 L 454.558,-66.594349 L 406.90175,-198.9381 L 404.683,-201.0006 L 386.6205,-201.0006 z M 394.8705,-183.3756 L 418.9955,-114.7506 L 370.933,-114.7506 L 394.8705,-183.3756 z "
     id="path5616" />
  <path
     style="fill:black;fill-rule:evenodd;stroke:black;stroke-width:1px;stroke-linecap:butt;stroke-linejoin:miter;stroke-opacity:1;fill-opacity:1"
     d="M 208.03125 76.90625 L 177.5 133.1875 L 138.03125 213.65625 L 125.03125 238.09375 C 125.03125 238.09375 122.72372 244.96162 115.59375 248.78125 C 108.46377 252.60086 99.5625 252.875 99.5625 252.875 L 99.3125 256.6875 L 161.1875 256.4375 L 160.9375 250.8125 C 160.9375 250.8125 149.7398 252.09159 145.15625 248.78125 C 140.57269 245.47089 140.8125 239.375 140.8125 239.375 L 142.34375 232.75 L 159.65625 196.59375 L 233.25 196.59375 L 247.5 228.9375 C 247.50001 228.9375 251.33232 235.55629 248.53125 244.46875 C 245.73019 253.38123 230.1875 250.3125 230.1875 250.3125 L 230.4375 254.90625 L 305.5625 254.65625 L 305.3125 250.8125 C 305.31251 250.8125 296.41677 251.58107 294.125 250.5625 C 291.83321 249.54393 284.9375 241.15625 284.9375 241.15625 L 245.96875 159.65625 L 208.03125 76.90625 z M 198.875 118.15625 L 228.78125 186.78125 L 164.25 186.90625 L 198.875 118.15625 z "
     id="path18962" />
  <path
     style="fill:black;fill-rule:evenodd;stroke:black;stroke-width:1px;stroke-linecap:butt;stroke-linejoin:miter;stroke-opacity:1;fill-opacity:1"
     d="M 316.26525,219.75597 L 316.51989,254.38727 L 394.9496,254.38727 L 392.91247,218.99204 C 392.91247,218.99204 350.13263,205.75066 352.4244,156.35013 C 354.71618,106.9496 380.27645,86.31272 419.64987,85.814323 C 459.88329,85.30504 480.50928,127.5756 481.78249,151.00265 C 483.33174,179.50889 473.37931,204.98674 457.08222,213.13528 C 440.78514,221.28382 445.11406,218.48276 445.11406,218.48276 L 443.84085,254.38727 L 522.5252,254.38727 L 522.77984,216.95491 C 522.77984,216.95491 515.14058,231.97878 507.75597,233.25199 C 500.37135,234.5252 454.28117,233.50663 454.28117,233.50663 L 454.28117,224.84881 C 454.28117,224.84881 506.99204,215.17241 513.35809,160.4244 C 519.72414,105.67639 450.2069,77.156498 416.84881,77.156498 C 383.49072,77.156498 319.89885,94.818699 320.84881,151.00265 C 321.80923,207.55052 369.9947,220.77454 373.81432,221.53846 C 377.63395,222.30239 383.74536,224.33952 383.74536,224.33952 L 384,234.27056 L 333.5809,234.01591 C 333.5809,234.01591 325.43236,231.97878 320.59416,226.88594 C 315.75597,221.7931 316.26525,219.50133 316.26525,219.75597 z "
     id="path18966"
     sodipodi:nodetypes="ccccssssccccsccsssscccsc" />
</svg>
