<?xml version="1.0" encoding="UTF-8" standalone="no"?>
<!-- Created with Inkscape (http://www.inkscape.org/) -->
<svg
   xmlns:dc="http://purl.org/dc/elements/1.1/"
   xmlns:cc="http://web.resource.org/cc/"
   xmlns:rdf="http://www.w3.org/1999/02/22-rdf-syntax-ns#"
   xmlns:svg="http://www.w3.org/2000/svg"
   xmlns="http://www.w3.org/2000/svg"
   xmlns:xlink="http://www.w3.org/1999/xlink"
   xmlns:sodipodi="http://sodipodi.sourceforge.net/DTD/sodipodi-0.dtd"
   xmlns:inkscape="http://www.inkscape.org/namespaces/inkscape"
   width="800"
   height="600"
   id="svg35032"
   sodipodi:version="0.32"
   inkscape:version="0.44"
   version="1.0"
   sodipodi:docbase="C:\Documents and Settings\Guillermo Pizarro\Desktop\SSP_IHM"
   sodipodi:docname="Logo_Principal_v1.1.svg">
  <defs
     id="defs35034" />
  <sodipodi:namedview
     id="base"
     pagecolor="#ffffff"
     bordercolor="#666666"
     borderopacity="1.0"
     inkscape:pageopacity="0.0"
     inkscape:pageshadow="2"
     inkscape:zoom="0.98994949"
     inkscape:cx="380.07627"
     inkscape:cy="350.22834"
     inkscape:document-units="px"
     inkscape:current-layer="layer1"
     width="800px"
     height="600px"
     inkscape:window-width="1024"
     inkscape:window-height="708"
     inkscape:window-x="-4"
     inkscape:window-y="-4" />
  <metadata
     id="metadata35037">
    <rdf:RDF>
      <cc:Work
         rdf:about="">
        <dc:format>image/svg+xml</dc:format>
        <dc:type
           rdf:resource="http://purl.org/dc/dcmitype/StillImage" />
      </cc:Work>
    </rdf:RDF>
  </metadata>
  <g
     inkscape:label="Capa 1"
     inkscape:groupmode="layer"
     id="layer1">
    <g
       id="g40671"
       transform="matrix(0.380046,0,0,0.380046,-46.10659,-7.862266)">
      <path
         transform="matrix(-0.84958,-0.383065,0.383065,-0.84958,577.1375,710.66)"
         d="M 578.57144 314.28571 A 210 210 0 1 1  158.57144,314.28571 A 210 210 0 1 1  578.57144 314.28571 z"
         sodipodi:ry="210"
         sodipodi:rx="210"
         sodipodi:cy="314.28571"
         sodipodi:cx="368.57144"
         id="path24304"
         style="opacity:1;fill:none;fill-opacity:0.31843573;fill-rule:nonzero;stroke:none;stroke-width:0.54850721;stroke-linejoin:miter;stroke-miterlimit:4;stroke-dasharray:none;stroke-opacity:1"
         sodipodi:type="arc" />
      <g
         id="g40653">
        <path
           sodipodi:type="arc"
           style="opacity:1;fill:#f5fada;fill-opacity:0.86033517;fill-rule:nonzero;stroke:black;stroke-width:0;stroke-linejoin:miter;stroke-miterlimit:4;stroke-dasharray:none;stroke-opacity:1"
           id="path26993"
           sodipodi:cx="247.99245"
           sodipodi:cy="321.70297"
           sodipodi:rx="155.05841"
           sodipodi:ry="155.05841"
           d="M 403.05086 321.70297 A 155.05841 155.05841 0 1 1  92.934036,321.70297 A 155.05841 155.05841 0 1 1  403.05086 321.70297 z"
           transform="matrix(1.149596,0,0,1.149596,95.60164,-69.31018)" />
        <path
           sodipodi:nodetypes="ccsscssccc"
           id="path21627"
           d="M 453.54443,282.28012 L 482.43275,171.88272 C 482.43275,171.88272 446.64006,226.74584 430.20323,241.77504 C 422.10481,249.17992 414.22897,251.51506 405.65755,241.26997 C 394.96727,228.49229 383.34138,210.85154 383.34138,210.85154 C 383.34138,210.85154 372.61837,230.2255 360.60679,241.47917 C 352.46939,249.10312 346.35696,250.92333 335.55602,241.26997 C 321.94666,229.10656 282.54659,172.17859 282.54659,172.17859 L 314.07669,281.56583 L 453.54443,282.28012 z "
           style="opacity:0.34299514;fill:#727272;fill-opacity:0.31843573;fill-rule:nonzero;stroke:none;stroke-width:0;stroke-linecap:butt;stroke-linejoin:miter;marker-start:none;marker-mid:none;marker-end:none;stroke-miterlimit:4;stroke-dasharray:none;stroke-opacity:1" />
        <path
           transform="matrix(1.196474,2.196616e-2,-2.196616e-2,1.196474,-81.67536,-143.3597)"
           d="M 403.05088,281.80193 L 394.2112,275.20673 L 385.7207,282.42136 L 389.2615,271.9763 L 379.77627,266.1308 L 390.80428,266.2706 L 393.43258,255.44325 L 396.70747,265.97471 L 407.81708,265.12855 L 398.81306,271.49755 L 403.05088,281.80193 z "
           inkscape:randomized="0"
           inkscape:rounded="0"
           inkscape:flatsided="false"
           sodipodi:arg2="1.5207151"
           sodipodi:arg1="0.90675016"
           sodipodi:r2="5.0278583"
           sodipodi:r1="14.75134"
           sodipodi:cy="270.18518"
           sodipodi:cx="393.9595"
           sodipodi:sides="5"
           id="path21629"
           style="opacity:0.34299514;fill:#727272;fill-opacity:0.31843573;fill-rule:nonzero;stroke:none;stroke-width:0;stroke-miterlimit:4;stroke-dasharray:none;stroke-opacity:1"
           sodipodi:type="star" />
        <path
           style="fill:#ece759;fill-opacity:1;fill-rule:evenodd;stroke:black;stroke-width:0.40000001;stroke-linecap:butt;stroke-linejoin:miter;marker-start:none;marker-mid:none;marker-end:none;stroke-miterlimit:4;stroke-dasharray:none;stroke-opacity:1"
           d="M 449.973,277.99441 L 478.86132,167.59701 C 478.86132,167.59701 443.06863,222.46013 426.6318,237.48933 C 418.53338,244.89421 410.65754,247.22935 402.08612,236.98426 C 391.39584,224.20658 379.76995,206.56583 379.76995,206.56583 C 379.76995,206.56583 369.04694,225.93979 357.03536,237.19346 C 348.89796,244.81741 342.78553,246.63762 331.98459,236.98426 C 318.37523,224.82085 278.97516,167.89288 278.97516,167.89288 L 310.50526,277.28012 L 449.973,277.99441 z "
           id="path1890"
           sodipodi:nodetypes="ccsscssccc" />
        <path
           sodipodi:type="star"
           style="opacity:1;fill:#e6e820;fill-opacity:1;stroke:black;stroke-width:0.33425933;stroke-miterlimit:4;stroke-dasharray:none;stroke-opacity:1"
           id="path1892"
           sodipodi:sides="5"
           sodipodi:cx="393.9595"
           sodipodi:cy="270.18518"
           sodipodi:r1="14.75134"
           sodipodi:r2="5.0278583"
           sodipodi:arg1="0.90675016"
           sodipodi:arg2="1.5207151"
           inkscape:flatsided="false"
           inkscape:rounded="0"
           inkscape:randomized="0"
           d="M 403.05088,281.80193 L 394.2112,275.20673 L 385.7207,282.42136 L 389.2615,271.9763 L 379.77627,266.1308 L 390.80428,266.2706 L 393.43258,255.44325 L 396.70747,265.97471 L 407.81708,265.12855 L 398.81306,271.49755 L 403.05088,281.80193 z "
           transform="matrix(1.196474,2.196616e-2,-2.196616e-2,1.196474,-85.24676,-147.6454)" />
        <path
           style="fill:black;fill-opacity:1;fill-rule:evenodd;stroke:black;stroke-width:0.51386952px;stroke-linecap:butt;stroke-linejoin:miter;stroke-opacity:1"
           d="M 305.22496,310.67984 L 289.53588,339.60106 L 269.25409,380.9515 L 262.57379,393.50918 C 262.57379,393.50918 261.38802,397.03837 257.72414,399.00116 C 254.06026,400.96395 249.48617,401.10482 249.48617,401.10482 L 249.3577,403.06395 L 281.15338,402.93548 L 281.02492,400.04496 C 281.02492,400.04496 275.27076,400.70225 272.91541,399.00116 C 270.56006,397.30007 270.68329,394.16758 270.68329,394.16758 L 271.47015,390.76319 L 280.36652,372.1836 L 318.18411,372.1836 L 325.50675,388.80407 C 325.50675,388.80407 327.47606,392.20526 326.03668,396.7851 C 324.5973,401.36495 316.61038,399.78803 316.61038,399.78803 L 316.73885,402.14862 L 355.3433,402.02015 L 355.21483,400.04496 C 355.21484,400.04496 350.64359,400.43991 349.46592,399.91649 C 348.28823,399.39308 344.74474,395.08291 344.74474,395.08291 L 324.71989,353.20254 L 305.22496,310.67984 z M 300.51984,331.87695 L 315.88775,367.14125 L 282.72711,367.20549 L 300.51984,331.87695 z "
           id="path18962" />
        <path
           style="fill:black;fill-opacity:1;fill-rule:evenodd;stroke:black;stroke-width:0.51386952px;stroke-linecap:butt;stroke-linejoin:miter;stroke-opacity:1"
           d="M 402.25937,384.08596 L 402.39022,401.88193 L 442.69286,401.88193 L 441.64604,383.6934 C 441.64604,383.6934 419.66278,376.88905 420.84045,351.50363 C 422.01813,326.1182 435.15277,315.51353 455.38557,315.25742 C 476.0603,314.99572 486.65937,336.71727 487.31363,348.75572 C 488.10975,363.40421 482.9955,376.4965 474.62092,380.68379 C 466.24634,384.87107 468.47084,383.43169 468.47084,383.43169 L 467.81658,401.88193 L 508.25007,401.88193 L 508.38092,382.64658 C 508.38092,382.64658 504.45534,390.36689 500.66061,391.02115 C 496.86588,391.67541 473.18154,391.152 473.18154,391.152 L 473.18154,386.70301 C 473.18154,386.70301 500.26805,381.7306 503.53937,353.59727 C 506.81069,325.46393 471.0879,310.80843 453.94619,310.80843 C 436.80449,310.80843 404.12656,319.8845 404.61472,348.75572 C 405.10825,377.81395 429.86929,384.60937 431.83208,385.00192 C 433.79487,385.39448 436.93534,386.4413 436.93534,386.4413 L 437.06619,391.54456 L 411.15735,391.41371 C 411.15735,391.41371 406.97006,390.36689 404.48386,387.74983 C 401.99766,385.13278 402.25937,383.9551 402.25937,384.08596 z "
           id="path18966"
           sodipodi:nodetypes="ccccssssccccsccsssscccsc" />
        <path
           transform="matrix(1.099715,2.196616e-2,-2.018976e-2,1.196474,-235.1546,44.50973)"
           d="M 403.05088,281.80193 L 394.2112,275.20673 L 385.7207,282.42136 L 389.2615,271.9763 L 379.77627,266.1308 L 390.80428,266.2706 L 393.43258,255.44325 L 396.70747,265.97471 L 407.81708,265.12855 L 398.81306,271.49755 L 403.05088,281.80193 z "
           inkscape:randomized="0"
           inkscape:rounded="0"
           inkscape:flatsided="false"
           sodipodi:arg2="1.5207151"
           sodipodi:arg1="0.90675016"
           sodipodi:r2="5.0278583"
           sodipodi:r1="14.75134"
           sodipodi:cy="270.18518"
           sodipodi:cx="393.9595"
           sodipodi:sides="5"
           id="path24296"
           style="opacity:0.34299514;fill:#727272;fill-opacity:0.31843573;fill-rule:nonzero;stroke:none;stroke-width:0;stroke-miterlimit:4;stroke-dasharray:none;stroke-opacity:1"
           sodipodi:type="star" />
        <path
           sodipodi:type="star"
           style="opacity:1;fill:#e6e820;fill-opacity:1;stroke:black;stroke-width:0.34865436;stroke-miterlimit:4;stroke-dasharray:none;stroke-opacity:1"
           id="path24298"
           sodipodi:sides="5"
           sodipodi:cx="393.9595"
           sodipodi:cy="270.18518"
           sodipodi:r1="14.75134"
           sodipodi:r2="5.0278583"
           sodipodi:arg1="0.90675016"
           sodipodi:arg2="1.5207151"
           inkscape:flatsided="false"
           inkscape:rounded="0"
           inkscape:randomized="0"
           d="M 403.05088,281.80193 L 394.2112,275.20673 L 385.7207,282.42136 L 389.2615,271.9763 L 379.77627,266.1308 L 390.80428,266.2706 L 393.43258,255.44325 L 396.70747,265.97471 L 407.81708,265.12855 L 398.81306,271.49755 L 403.05088,281.80193 z "
           transform="matrix(1.099715,2.196616e-2,-2.018976e-2,1.196474,-238.6474,40.22402)" />
        <path
           transform="matrix(1.099715,2.196616e-2,-2.018976e-2,1.196474,147.1205,47.36687)"
           d="M 403.05088,281.80193 L 394.2112,275.20673 L 385.7207,282.42136 L 389.2615,271.9763 L 379.77627,266.1308 L 390.80428,266.2706 L 393.43258,255.44325 L 396.70747,265.97471 L 407.81708,265.12855 L 398.81306,271.49755 L 403.05088,281.80193 z "
           inkscape:randomized="0"
           inkscape:rounded="0"
           inkscape:flatsided="false"
           sodipodi:arg2="1.5207151"
           sodipodi:arg1="0.90675016"
           sodipodi:r2="5.0278583"
           sodipodi:r1="14.75134"
           sodipodi:cy="270.18518"
           sodipodi:cx="393.9595"
           sodipodi:sides="5"
           id="path24300"
           style="opacity:0.34299514;fill:#727272;fill-opacity:0.31843573;fill-rule:nonzero;stroke:none;stroke-width:0;stroke-miterlimit:4;stroke-dasharray:none;stroke-opacity:1"
           sodipodi:type="star" />
        <path
           sodipodi:type="star"
           style="opacity:1;fill:#e6e820;fill-opacity:1;stroke:black;stroke-width:0.34865436;stroke-miterlimit:4;stroke-dasharray:none;stroke-opacity:1"
           id="path24302"
           sodipodi:sides="5"
           sodipodi:cx="393.9595"
           sodipodi:cy="270.18518"
           sodipodi:r1="14.75134"
           sodipodi:r2="5.0278583"
           sodipodi:arg1="0.90675016"
           sodipodi:arg2="1.5207151"
           inkscape:flatsided="false"
           inkscape:rounded="0"
           inkscape:randomized="0"
           d="M 403.05088,281.80193 L 394.2112,275.20673 L 385.7207,282.42136 L 389.2615,271.9763 L 379.77627,266.1308 L 390.80428,266.2706 L 393.43258,255.44325 L 396.70747,265.97471 L 407.81708,265.12855 L 398.81306,271.49755 L 403.05088,281.80193 z "
           transform="matrix(1.099715,2.196616e-2,-2.018976e-2,1.196474,143.6277,43.08116)" />
        <text
           xml:space="preserve"
           style="font-size:40.00001526px;font-style:normal;font-weight:normal;fill:black;fill-opacity:1;stroke:none;stroke-width:1px;stroke-linecap:butt;stroke-linejoin:miter;stroke-opacity:1;font-family:Bitstream Vera Sans"
           id="text26101"
           transform="matrix(0.994867,0.101188,-0.101188,0.994867,29.19459,-39.93689)"><textPath
             xlink:href="#path24304"
             id="textPath26105"><tspan
   id="tspan26103"
   style="font-size:40.00001526px">Parroquia Cristo Rey</tspan></textPath></text>
      </g>
    </g>
  </g>
</svg>
