<?xml version="1.0" encoding="UTF-8" standalone="no"?>
<!-- Created with Inkscape (http://www.inkscape.org/) -->
<svg
   xmlns:dc="http://purl.org/dc/elements/1.1/"
   xmlns:cc="http://web.resource.org/cc/"
   xmlns:rdf="http://www.w3.org/1999/02/22-rdf-syntax-ns#"
   xmlns:svg="http://www.w3.org/2000/svg"
   xmlns="http://www.w3.org/2000/svg"
   xmlns:xlink="http://www.w3.org/1999/xlink"
   xmlns:sodipodi="http://sodipodi.sourceforge.net/DTD/sodipodi-0.dtd"
   xmlns:inkscape="http://www.inkscape.org/namespaces/inkscape"
   width="152"
   height="120"
   id="svg1899"
   sodipodi:version="0.32"
   inkscape:version="0.44"
   version="1.0"
   sodipodi:docbase="C:\Documents and Settings\Guillermo Pizarro\Desktop\SSP_IHM"
   sodipodi:docname="Logo_v2.0.svg"
   inkscape:export-filename="C:\Documents and Settings\Guillermo Pizarro\Desktop\SSP_IHM\Logo_v2.0.png"
   inkscape:export-xdpi="90"
   inkscape:export-ydpi="90">
  <defs
     id="defs1901" />
  <sodipodi:namedview
     id="base"
     pagecolor="#ffffff"
     bordercolor="#666666"
     borderopacity="1.0"
     inkscape:pageopacity="0.0"
     inkscape:pageshadow="2"
     inkscape:zoom="2.8"
     inkscape:cx="115.54338"
     inkscape:cy="59.422297"
     inkscape:document-units="px"
     inkscape:current-layer="layer1"
     width="152px"
     height="120px"
     inkscape:window-width="942"
     inkscape:window-height="575"
     inkscape:window-x="74"
     inkscape:window-y="145" />
  <metadata
     id="metadata1904">
    <rdf:RDF>
      <cc:Work
         rdf:about="">
        <dc:format>image/svg+xml</dc:format>
        <dc:type
           rdf:resource="http://purl.org/dc/dcmitype/StillImage" />
      </cc:Work>
    </rdf:RDF>
  </metadata>
  <g
     inkscape:label="Capa 1"
     inkscape:groupmode="layer"
     id="layer1">
    <g
       id="g1922"
       transform="matrix(0.29103,0,0,0.29103,16.23433,141.2951)">
      <path
         transform="matrix(1.149596,0,0,1.149596,-80.52178,-633.3057)"
         d="M 403.05086 321.70297 A 155.05841 155.05841 0 1 1  92.934036,321.70297 A 155.05841 155.05841 0 1 1  403.05086 321.70297 z"
         sodipodi:ry="155.05841"
         sodipodi:rx="155.05841"
         sodipodi:cy="321.70297"
         sodipodi:cx="247.99245"
         id="path26993"
         style="opacity:1;fill:#f5fada;fill-opacity:0.86033517;fill-rule:nonzero;stroke:black;stroke-width:0;stroke-linejoin:miter;stroke-miterlimit:4;stroke-dasharray:none;stroke-opacity:1"
         sodipodi:type="arc" />
      <path
         style="opacity:0.34299514;fill:#727272;fill-opacity:0.31843573;fill-rule:nonzero;stroke:none;stroke-width:0;stroke-linecap:butt;stroke-linejoin:miter;marker-start:none;marker-mid:none;marker-end:none;stroke-miterlimit:4;stroke-dasharray:none;stroke-opacity:1"
         d="M 277.42105,-281.71545 L 306.30937,-392.11285 C 306.30937,-392.11285 270.51668,-337.24973 254.07985,-322.22053 C 245.98143,-314.81565 238.10559,-312.48051 229.53417,-322.7256 C 218.84389,-335.50328 207.218,-353.14403 207.218,-353.14403 C 207.218,-353.14403 196.49499,-333.77007 184.48341,-322.5164 C 176.34601,-314.89245 170.23358,-313.07224 159.43264,-322.7256 C 145.82328,-334.88901 106.42321,-391.81698 106.42321,-391.81698 L 137.95331,-282.42974 L 277.42105,-281.71545 z "
         id="path21627"
         sodipodi:nodetypes="ccsscssccc" />
      <path
         sodipodi:type="star"
         style="opacity:0.34299514;fill:#727272;fill-opacity:0.31843573;fill-rule:nonzero;stroke:none;stroke-width:0;stroke-miterlimit:4;stroke-dasharray:none;stroke-opacity:1"
         id="path21629"
         sodipodi:sides="5"
         sodipodi:cx="393.9595"
         sodipodi:cy="270.18518"
         sodipodi:r1="14.75134"
         sodipodi:r2="5.0278583"
         sodipodi:arg1="0.90675016"
         sodipodi:arg2="1.5207151"
         inkscape:flatsided="false"
         inkscape:rounded="0"
         inkscape:randomized="0"
         d="M 403.05088,281.80193 L 394.2112,275.20673 L 385.7207,282.42136 L 389.2615,271.9763 L 379.77627,266.1308 L 390.80428,266.2706 L 393.43258,255.44325 L 396.70747,265.97471 L 407.81708,265.12855 L 398.81306,271.49755 L 403.05088,281.80193 z "
         transform="matrix(1.196474,2.196616e-2,-2.196616e-2,1.196474,-257.7987,-707.3553)" />
      <path
         sodipodi:nodetypes="ccsscssccc"
         id="path1890"
         d="M 273.84962,-286.00116 L 302.73794,-396.39856 C 302.73794,-396.39856 266.94525,-341.53544 250.50842,-326.50624 C 242.41,-319.10136 234.53416,-316.76622 225.96274,-327.01131 C 215.27246,-339.78899 203.64657,-357.42974 203.64657,-357.42974 C 203.64657,-357.42974 192.92356,-338.05578 180.91198,-326.80211 C 172.77458,-319.17816 166.66215,-317.35795 155.86121,-327.01131 C 142.25185,-339.17472 102.85178,-396.10269 102.85178,-396.10269 L 134.38188,-286.71545 L 273.84962,-286.00116 z "
         style="fill:#ece759;fill-opacity:1;fill-rule:evenodd;stroke:black;stroke-width:0.40000001;stroke-linecap:butt;stroke-linejoin:miter;marker-start:none;marker-mid:none;marker-end:none;stroke-miterlimit:4;stroke-dasharray:none;stroke-opacity:1" />
      <path
         transform="matrix(1.196474,2.196616e-2,-2.196616e-2,1.196474,-261.3701,-711.641)"
         d="M 403.05088,281.80193 L 394.2112,275.20673 L 385.7207,282.42136 L 389.2615,271.9763 L 379.77627,266.1308 L 390.80428,266.2706 L 393.43258,255.44325 L 396.70747,265.97471 L 407.81708,265.12855 L 398.81306,271.49755 L 403.05088,281.80193 z "
         inkscape:randomized="0"
         inkscape:rounded="0"
         inkscape:flatsided="false"
         sodipodi:arg2="1.5207151"
         sodipodi:arg1="0.90675016"
         sodipodi:r2="5.0278583"
         sodipodi:r1="14.75134"
         sodipodi:cy="270.18518"
         sodipodi:cx="393.9595"
         sodipodi:sides="5"
         id="path1892"
         style="opacity:1;fill:#e6e820;fill-opacity:1;stroke:black;stroke-width:0.33425933;stroke-miterlimit:4;stroke-dasharray:none;stroke-opacity:1"
         sodipodi:type="star" />
      <path
         id="path18962"
         d="M 129.10158,-253.31573 L 113.4125,-224.39451 L 93.130713,-183.04407 L 86.450413,-170.48639 C 86.450413,-170.48639 85.264643,-166.9572 81.600763,-164.99441 C 77.936883,-163.03162 73.362793,-162.89075 73.362793,-162.89075 L 73.234323,-160.93162 L 105.03,-161.06009 L 104.90154,-163.95061 C 104.90154,-163.95061 99.147383,-163.29332 96.792033,-164.99441 C 94.436683,-166.6955 94.559913,-169.82799 94.559913,-169.82799 L 95.346773,-173.23238 L 104.24314,-191.81197 L 142.06073,-191.81197 L 149.38337,-175.1915 C 149.38337,-175.1915 151.35268,-171.79031 149.9133,-167.21047 C 148.47392,-162.63062 140.487,-164.20754 140.487,-164.20754 L 140.61547,-161.84695 L 179.21992,-161.97542 L 179.09145,-163.95061 C 179.09146,-163.95061 174.52021,-163.55566 173.34254,-164.07908 C 172.16485,-164.60249 168.62136,-168.91266 168.62136,-168.91266 L 148.59651,-210.79303 L 129.10158,-253.31573 z M 124.39646,-232.11862 L 139.76437,-196.85432 L 106.60373,-196.79008 L 124.39646,-232.11862 z "
         style="fill:black;fill-opacity:1;fill-rule:evenodd;stroke:black;stroke-width:0.51386952px;stroke-linecap:butt;stroke-linejoin:miter;stroke-opacity:1" />
      <path
         sodipodi:nodetypes="ccccssssccccsccsssscccsc"
         id="path18966"
         d="M 226.13599,-179.90961 L 226.26684,-162.11364 L 266.56948,-162.11364 L 265.52266,-180.30217 C 265.52266,-180.30217 243.5394,-187.10652 244.71707,-212.49194 C 245.89475,-237.87737 259.02939,-248.48204 279.26219,-248.73815 C 299.93692,-248.99985 310.53599,-227.2783 311.19025,-215.23985 C 311.98637,-200.59136 306.87212,-187.49907 298.49754,-183.31178 C 290.12296,-179.1245 292.34746,-180.56388 292.34746,-180.56388 L 291.6932,-162.11364 L 332.12669,-162.11364 L 332.25754,-181.34899 C 332.25754,-181.34899 328.33196,-173.62868 324.53723,-172.97442 C 320.7425,-172.32016 297.05816,-172.84357 297.05816,-172.84357 L 297.05816,-177.29256 C 297.05816,-177.29256 324.14467,-182.26497 327.41599,-210.3983 C 330.68731,-238.53164 294.96452,-253.18714 277.82281,-253.18714 C 260.68111,-253.18714 228.00318,-244.11107 228.49134,-215.23985 C 228.98487,-186.18162 253.74591,-179.3862 255.7087,-178.99365 C 257.67149,-178.60109 260.81196,-177.55427 260.81196,-177.55427 L 260.94281,-172.45101 L 235.03397,-172.58186 C 235.03397,-172.58186 230.84668,-173.62868 228.36048,-176.24574 C 225.87428,-178.86279 226.13599,-180.04047 226.13599,-179.90961 z "
         style="fill:black;fill-opacity:1;fill-rule:evenodd;stroke:black;stroke-width:0.51386952px;stroke-linecap:butt;stroke-linejoin:miter;stroke-opacity:1" />
      <path
         sodipodi:type="star"
         style="opacity:0.34299514;fill:#727272;fill-opacity:0.31843573;fill-rule:nonzero;stroke:none;stroke-width:0;stroke-miterlimit:4;stroke-dasharray:none;stroke-opacity:1"
         id="path24296"
         sodipodi:sides="5"
         sodipodi:cx="393.9595"
         sodipodi:cy="270.18518"
         sodipodi:r1="14.75134"
         sodipodi:r2="5.0278583"
         sodipodi:arg1="0.90675016"
         sodipodi:arg2="1.5207151"
         inkscape:flatsided="false"
         inkscape:rounded="0"
         inkscape:randomized="0"
         d="M 403.05088,281.80193 L 394.2112,275.20673 L 385.7207,282.42136 L 389.2615,271.9763 L 379.77627,266.1308 L 390.80428,266.2706 L 393.43258,255.44325 L 396.70747,265.97471 L 407.81708,265.12855 L 398.81306,271.49755 L 403.05088,281.80193 z "
         transform="matrix(1.099715,2.196616e-2,-2.018976e-2,1.196474,-411.278,-519.4858)" />
      <path
         transform="matrix(1.099715,2.196616e-2,-2.018976e-2,1.196474,-414.7708,-523.7715)"
         d="M 403.05088,281.80193 L 394.2112,275.20673 L 385.7207,282.42136 L 389.2615,271.9763 L 379.77627,266.1308 L 390.80428,266.2706 L 393.43258,255.44325 L 396.70747,265.97471 L 407.81708,265.12855 L 398.81306,271.49755 L 403.05088,281.80193 z "
         inkscape:randomized="0"
         inkscape:rounded="0"
         inkscape:flatsided="false"
         sodipodi:arg2="1.5207151"
         sodipodi:arg1="0.90675016"
         sodipodi:r2="5.0278583"
         sodipodi:r1="14.75134"
         sodipodi:cy="270.18518"
         sodipodi:cx="393.9595"
         sodipodi:sides="5"
         id="path24298"
         style="opacity:1;fill:#e6e820;fill-opacity:1;stroke:black;stroke-width:0.34865436;stroke-miterlimit:4;stroke-dasharray:none;stroke-opacity:1"
         sodipodi:type="star" />
      <path
         sodipodi:type="star"
         style="opacity:0.34299514;fill:#727272;fill-opacity:0.31843573;fill-rule:nonzero;stroke:none;stroke-width:0;stroke-miterlimit:4;stroke-dasharray:none;stroke-opacity:1"
         id="path24300"
         sodipodi:sides="5"
         sodipodi:cx="393.9595"
         sodipodi:cy="270.18518"
         sodipodi:r1="14.75134"
         sodipodi:r2="5.0278583"
         sodipodi:arg1="0.90675016"
         sodipodi:arg2="1.5207151"
         inkscape:flatsided="false"
         inkscape:rounded="0"
         inkscape:randomized="0"
         d="M 403.05088,281.80193 L 394.2112,275.20673 L 385.7207,282.42136 L 389.2615,271.9763 L 379.77627,266.1308 L 390.80428,266.2706 L 393.43258,255.44325 L 396.70747,265.97471 L 407.81708,265.12855 L 398.81306,271.49755 L 403.05088,281.80193 z "
         transform="matrix(1.099715,2.196616e-2,-2.018976e-2,1.196474,-29.00288,-516.6287)" />
      <path
         transform="matrix(1.099715,2.196616e-2,-2.018976e-2,1.196474,-32.49568,-520.9144)"
         d="M 403.05088,281.80193 L 394.2112,275.20673 L 385.7207,282.42136 L 389.2615,271.9763 L 379.77627,266.1308 L 390.80428,266.2706 L 393.43258,255.44325 L 396.70747,265.97471 L 407.81708,265.12855 L 398.81306,271.49755 L 403.05088,281.80193 z "
         inkscape:randomized="0"
         inkscape:rounded="0"
         inkscape:flatsided="false"
         sodipodi:arg2="1.5207151"
         sodipodi:arg1="0.90675016"
         sodipodi:r2="5.0278583"
         sodipodi:r1="14.75134"
         sodipodi:cy="270.18518"
         sodipodi:cx="393.9595"
         sodipodi:sides="5"
         id="path24302"
         style="opacity:1;fill:#e6e820;fill-opacity:1;stroke:black;stroke-width:0.34865436;stroke-miterlimit:4;stroke-dasharray:none;stroke-opacity:1"
         sodipodi:type="star" />
      <path
         transform="matrix(-0.84958,-0.383065,0.383065,-0.84958,401.0141,146.6644)"
         d="M 578.57144 314.28571 A 210 210 0 1 1  158.57144,314.28571 A 210 210 0 1 1  578.57144 314.28571 z"
         sodipodi:ry="210"
         sodipodi:rx="210"
         sodipodi:cy="314.28571"
         sodipodi:cx="368.57144"
         id="path24304"
         style="opacity:1;fill:none;fill-opacity:0.31843573;fill-rule:nonzero;stroke:none;stroke-width:0.54850721;stroke-linejoin:miter;stroke-miterlimit:4;stroke-dasharray:none;stroke-opacity:1"
         sodipodi:type="arc" />
      <text
         transform="matrix(0.994867,0.101188,-0.101188,0.994867,-26.80541,-17.93689)"
         id="text26101"
         style="font-size:40.00001526px;font-style:normal;font-weight:normal;fill:black;fill-opacity:1;stroke:none;stroke-width:1px;stroke-linecap:butt;stroke-linejoin:miter;stroke-opacity:1;font-family:Bitstream Vera Sans"
         xml:space="preserve"><textPath
           id="textPath26105"
           xlink:href="#path24304"><tspan
   style="font-size:40.00001526px"
   id="tspan26103">Parroquia Cristo Rey</tspan></textPath></text>
    </g>
  </g>
</svg>
